# xmcd CD database file
#
# Track frame offsets:
#	150
#	19777
#	48948
#	66860
#	94447
#	111424
#	133867
#	152976
#	172430
#	194200
#
# Disc length: 2980 seconds
#
# Revision: 0
# Processed by: cddbd v1.5.2PL0 Copyright (c) Steve Scherf et al.
# Submitted via: CDex 1.70beta2
#
DISCID=9f0ba20a
DTITLE=l'arc six - seven wonders
DYEAR=2001
DGENRE=Jazz
TTITLE0=flamekeeper
TTITLE1=island
TTITLE2=say you're mine
TTITLE3=one voice
TTITLE4=question
TTITLE5=seven wonders
TTITLE6=maybe
TTITLE7=little noises
TTITLE8=arcadia
TTITLE9=invisible tatoo
EXTD=YEAR: 2001
EXTT0=
EXTT1=
EXTT2=
EXTT3=
EXTT4=
EXTT5=
EXTT6=
EXTT7=
EXTT8=
EXTT9=
PLAYORDER=
